<?xml version="1.0" encoding="UTF-8" standalone="no"?><svg xmlns="http://www.w3.org/2000/svg" xmlns:xlink="http://www.w3.org/1999/xlink" style="isolation:isolate" viewBox="0 0 169.923 39.514" width="169.923pt" height="39.514pt"><clipPath id="_clipPath_2DwJhEoHuHURotLQkn9lFjOPYNKT0NUa"><path d=" M 0 0 L 169.923 0 L 169.923 39.514 L 0 39.514 L 0 0 Z " fill="rgb(255,255,255)"></path></clipPath><g clip-path="url(#_clipPath_2DwJhEoHuHURotLQkn9lFjOPYNKT0NUa)"><path d=" M 72.142 16.471 C 71.804 16.735 71.746 17.111 71.746 17.495 L 71.746 22.023 C 71.746 22.408 71.804 22.783 72.142 23.046 L 69.568 23.046 C 69.906 22.783 69.962 22.408 69.962 22.023 L 69.962 17.409 L 68.234 17.409 L 68.234 22.023 C 68.234 22.408 68.291 22.783 68.628 23.046 L 66.055 23.046 C 66.393 22.783 66.45 22.408 66.45 22.023 L 66.45 17.495 C 66.45 17.111 66.393 16.735 66.055 16.471 L 72.142 16.471 Z " fill="rgb(10,81,161)"></path><path d=" M 75.138 16.471 L 76.734 19.768 L 77.571 17.589 C 77.617 17.467 77.665 17.286 77.665 17.137 C 77.665 16.856 77.505 16.641 77.28 16.471 L 79.14 16.471 L 77.007 21.741 C 76.406 23.216 75.062 23.235 74.818 23.235 C 74.376 23.235 74.048 23.141 73.71 22.887 L 74.226 21.91 C 74.405 22.117 74.602 22.2 74.884 22.2 C 75.119 22.2 75.57 22.191 75.899 21.591 L 75.964 21.469 C 75.495 21.151 75.419 20.932 75.298 20.698 L 73.663 17.532 C 73.325 16.874 73.034 16.604 72.874 16.471 L 75.138 16.471 Z " fill="rgb(10,81,161)"></path><path d=" M 82.051 20.117 L 81.374 18.124 L 80.679 20.117 L 82.051 20.117 Z  M 82.634 16.471 L 84.577 21.891 C 84.859 22.68 85.189 22.942 85.359 23.046 L 82.361 23.046 C 82.634 22.895 82.775 22.643 82.775 22.371 C 82.775 22.286 82.718 22.041 82.69 21.975 L 82.361 21.054 L 80.389 21.054 L 80.06 21.994 C 80.013 22.134 79.966 22.277 79.966 22.453 C 79.966 22.575 79.995 22.83 80.294 23.046 L 78.304 23.046 C 78.66 22.671 78.829 22.397 79.008 21.891 L 80.52 17.513 C 80.577 17.364 80.614 17.204 80.614 17.015 C 80.614 16.838 80.529 16.667 80.248 16.471 L 82.634 16.471 Z " fill="rgb(10,81,161)"></path><path d=" M 90.063 17.907 C 89.933 17.561 89.538 17.541 89.267 17.541 L 88.636 17.541 L 88.636 22.022 C 88.636 22.407 88.693 22.783 89.031 23.046 L 86.459 23.046 C 86.796 22.783 86.852 22.407 86.852 22.022 L 86.852 17.541 L 86.221 17.541 C 85.761 17.541 85.415 17.702 85.132 17.973 L 85.499 16.433 C 85.575 16.462 85.64 16.47 85.734 16.47 L 90.159 16.47 C 90.251 16.47 90.32 16.462 90.394 16.433 L 90.063 17.907 Z " fill="rgb(10,81,161)"></path><path d=" M 80.67 5.169 C 86.776 6.248 91.591 11.061 92.667 17.166 L 97.837 19.75 C 97.833 8.843 88.993 0.005 78.087 0 L 80.67 5.169 Z " fill-rule="evenodd" fill="rgb(104,169,207)"></path><path d=" M 63.493 17.166 C 64.57 11.061 69.383 6.248 75.49 5.169 L 78.072 0 C 67.167 0.005 58.327 8.844 58.324 19.75 L 63.493 17.166 Z " fill-rule="evenodd" fill="rgb(1,136,55)"></path><path d=" M 75.489 34.346 C 69.383 33.268 64.569 28.454 63.492 22.349 L 58.323 19.766 C 58.327 30.671 67.167 39.509 78.071 39.514 L 75.489 34.346 Z " fill-rule="evenodd" fill="rgb(255,166,0)"></path><path d=" M 92.667 22.349 C 91.591 28.454 86.776 33.268 80.671 34.346 L 78.088 39.514 C 88.993 39.509 97.833 30.671 97.837 19.766 L 92.667 22.349 Z " fill-rule="evenodd" fill="rgb(10,81,161)"></path><path d=" M 104.51 15.769 L 106.036 15.769 L 105.27 13.828 L 104.51 15.769 Z  M 105.762 13.188 L 107.457 17.387 C 107.57 17.662 107.71 17.929 108.056 18.112 L 106.542 18.112 C 106.873 17.964 106.818 17.725 106.753 17.563 L 106.22 16.241 L 104.327 16.241 L 103.884 17.345 C 103.785 17.591 103.722 17.879 104.052 18.112 L 102.724 18.112 C 103.089 17.873 103.23 17.556 103.364 17.218 L 104.771 13.659 C 104.798 13.588 104.897 13.322 104.609 13.188 L 105.762 13.188 Z " fill="rgb(10,81,161)"></path><path d=" M 109.043 17.527 C 109.233 17.555 109.515 17.59 109.774 17.59 C 110.851 17.59 110.963 16.929 110.963 16.627 C 110.963 16.218 110.724 15.607 109.626 15.607 C 109.57 15.607 109.43 15.607 109.043 15.635 L 109.043 17.527 Z  M 109.043 15.149 L 109.43 15.157 C 110.169 15.171 110.506 14.777 110.506 14.369 C 110.506 13.996 110.239 13.673 109.599 13.673 C 109.45 13.673 109.204 13.693 109.043 13.714 L 109.043 15.149 Z  M 109.894 13.152 C 110.724 13.137 111.308 13.567 111.308 14.256 C 111.308 14.882 110.829 15.157 110.562 15.256 C 111.266 15.333 111.772 15.839 111.772 16.578 C 111.772 17.204 111.427 18.111 109.711 18.111 L 108.001 18.111 C 108.325 17.885 108.325 17.604 108.325 17.408 L 108.325 13.89 C 108.325 13.693 108.325 13.412 108.001 13.187 L 109.894 13.152 Z " fill="rgb(10,81,161)"></path><path d=" M 113.935 17.408 C 113.935 17.604 113.935 17.886 114.259 18.111 L 112.894 18.111 C 113.218 17.886 113.218 17.604 113.218 17.408 L 113.218 13.75 L 112.38 13.743 C 112.212 13.743 111.91 13.771 111.65 14.038 L 111.931 13.159 C 112.099 13.187 112.198 13.187 112.38 13.187 L 115.103 13.187 C 115.251 13.187 115.406 13.173 115.533 13.159 L 115.287 13.982 C 115.152 13.743 114.899 13.743 114.723 13.743 L 113.935 13.75 L 113.935 17.408 Z " fill="rgb(10,81,161)"></path><path d=" M 116.38 15.537 C 116.38 16.761 117.147 17.64 118.258 17.64 C 119.165 17.64 120.164 17.057 120.164 15.762 C 120.164 14.538 119.398 13.658 118.286 13.658 C 117.378 13.658 116.38 14.242 116.38 15.537 Z  M 120.974 15.649 C 120.974 16.965 120.044 18.217 118.273 18.217 C 116.429 18.217 115.571 16.888 115.571 15.649 C 115.571 14.334 116.499 13.082 118.273 13.082 C 120.114 13.082 120.974 14.411 120.974 15.649 Z " fill="rgb(10,81,161)"></path><path d=" M 123.063 13.188 L 124.484 16.867 L 125.808 13.68 C 125.878 13.518 125.926 13.335 125.954 13.188 L 127.172 13.188 C 127.038 13.272 126.89 13.434 126.947 13.898 L 127.404 17.486 C 127.433 17.697 127.481 17.936 127.749 18.112 L 126.383 18.112 C 126.729 17.879 126.673 17.556 126.637 17.233 L 126.265 13.926 L 124.526 18.182 L 124.33 18.013 C 124.161 17.866 124.048 17.655 123.957 17.422 L 122.578 13.941 L 122.106 17.289 C 122.065 17.584 122.008 17.915 122.387 18.112 L 121.165 18.112 C 121.346 17.943 121.488 17.71 121.544 17.31 L 122.036 13.919 C 122.079 13.617 122.142 13.384 121.812 13.188 L 123.063 13.188 Z " fill="rgb(10,81,161)"></path><path d=" M 128.749 15.537 C 128.749 16.761 129.516 17.64 130.627 17.64 C 131.534 17.64 132.533 17.057 132.533 15.762 C 132.533 14.538 131.767 13.658 130.655 13.658 C 129.747 13.658 128.749 14.242 128.749 15.537 Z  M 133.343 15.649 C 133.343 16.965 132.413 18.217 130.642 18.217 C 128.798 18.217 127.94 16.888 127.94 15.649 C 127.94 14.334 128.868 13.082 130.642 13.082 C 132.483 13.082 133.343 14.411 133.343 15.649 Z " fill="rgb(10,81,161)"></path><path d=" M 134.934 17.527 C 135.046 17.548 135.341 17.59 135.665 17.59 C 136.685 17.59 136.854 16.929 136.854 16.528 C 136.854 15.607 135.834 15.607 135.532 15.607 C 135.356 15.607 135.103 15.628 134.934 15.642 L 134.934 17.527 Z  M 136.896 13.187 C 136.988 13.187 137.072 13.18 137.15 13.166 L 137.15 13.996 C 136.931 13.763 136.658 13.75 136.412 13.75 L 134.934 13.75 L 134.934 15.135 C 135.165 15.122 135.622 15.087 135.855 15.087 C 136.996 15.087 137.663 15.614 137.663 16.543 C 137.663 18.069 136.025 18.111 135.602 18.111 L 133.892 18.111 C 134.216 17.885 134.216 17.604 134.216 17.408 L 134.216 13.89 C 134.216 13.693 134.216 13.412 133.892 13.187 L 136.896 13.187 Z " fill="rgb(10,81,161)"></path><path d=" M 141.612 13.462 C 141.696 13.335 141.753 13.265 141.858 13.188 L 142.856 13.188 C 142.54 13.412 142.533 13.658 142.533 13.891 L 142.533 17.408 C 142.533 17.64 142.54 17.886 142.856 18.111 L 141.492 18.111 C 141.809 17.886 141.815 17.64 141.815 17.408 L 141.815 14.108 L 139.311 17.837 C 139.227 17.964 139.171 18.034 139.065 18.111 L 138.066 18.111 C 138.383 17.886 138.389 17.64 138.389 17.408 L 138.389 13.891 C 138.389 13.658 138.383 13.412 138.066 13.188 L 139.43 13.188 C 139.114 13.412 139.108 13.658 139.108 13.891 L 139.108 17.19 L 141.612 13.462 Z " fill="rgb(10,81,161)"></path><path d=" M 147.108 17.408 C 147.108 17.604 147.108 17.886 147.431 18.111 L 146.067 18.111 C 146.39 17.886 146.39 17.604 146.39 17.408 L 146.39 13.75 L 144.956 13.75 L 144.941 14.601 C 144.891 17.738 143.985 18.217 143.316 18.217 C 143.196 18.217 143.105 18.181 143.028 18.153 L 142.944 17.338 C 143.105 17.464 143.217 17.513 143.358 17.513 C 144.153 17.513 144.343 15.487 144.343 14.362 C 144.343 13.701 144.21 13.328 143.83 13.187 L 147.438 13.187 C 147.115 13.42 147.108 13.666 147.108 13.89 L 147.108 17.408 Z " fill="rgb(10,81,161)"></path><path d=" M 149.081 17.514 C 149.277 17.549 149.544 17.577 149.811 17.577 C 150.966 17.577 151.001 16.733 151.001 16.5 C 151.001 15.551 149.981 15.551 149.679 15.551 C 149.538 15.551 149.327 15.565 149.081 15.593 L 149.081 17.514 Z  M 149.403 13.188 C 149.081 13.412 149.081 13.694 149.081 13.891 L 149.081 15.073 C 149.319 15.052 149.734 15.017 150.002 15.017 C 151.142 15.017 151.81 15.544 151.81 16.508 C 151.81 18.076 150.171 18.112 149.749 18.112 L 148.039 18.112 C 148.362 17.886 148.362 17.605 148.362 17.409 L 148.362 13.891 C 148.362 13.694 148.362 13.412 148.039 13.188 L 149.403 13.188 Z " fill="rgb(10,81,161)"></path><path d=" M 155.963 15.129 L 155.963 13.891 C 155.963 13.658 155.956 13.412 155.64 13.188 L 157.004 13.188 C 156.688 13.412 156.681 13.658 156.681 13.891 L 156.681 17.408 C 156.681 17.64 156.688 17.886 157.004 18.111 L 155.64 18.111 C 155.956 17.886 155.963 17.64 155.963 17.408 L 155.963 15.691 L 153.255 15.691 L 153.255 17.408 C 153.255 17.64 153.262 17.886 153.578 18.111 L 152.214 18.111 C 152.53 17.886 152.537 17.64 152.537 17.408 L 152.537 13.891 C 152.537 13.658 152.53 13.412 152.214 13.188 L 153.578 13.188 C 153.262 13.412 153.255 13.658 153.255 13.891 L 153.255 15.129 L 155.963 15.129 Z " fill="rgb(10,81,161)"></path><path d=" M 163.099 13.188 C 162.775 13.413 162.775 13.694 162.775 13.891 L 162.775 17.409 C 162.775 17.605 162.775 17.886 163.099 18.112 L 161.734 18.112 C 162.058 17.886 162.058 17.605 162.058 17.409 L 162.058 13.891 C 162.058 13.694 162.058 13.413 161.734 13.188 L 163.099 13.188 Z  M 158.646 17.514 C 158.843 17.549 159.11 17.578 159.377 17.578 C 160.531 17.578 160.566 16.733 160.566 16.501 C 160.566 15.551 159.546 15.551 159.244 15.551 C 159.103 15.551 158.892 15.565 158.646 15.593 L 158.646 17.514 Z  M 158.969 13.188 C 158.646 13.413 158.646 13.694 158.646 13.891 L 158.646 15.073 C 158.884 15.052 159.3 15.017 159.568 15.017 C 160.706 15.017 161.374 15.544 161.374 16.508 C 161.374 18.077 159.736 18.112 159.314 18.112 L 157.605 18.112 C 157.928 17.886 157.928 17.605 157.928 17.409 L 157.928 13.891 C 157.928 13.694 157.928 13.413 157.605 13.188 L 158.969 13.188 Z " fill="rgb(10,81,161)"></path><path d=" M 165.237 13.188 L 166.659 16.867 L 167.981 13.68 C 168.051 13.518 168.1 13.335 168.129 13.188 L 169.346 13.188 C 169.212 13.272 169.064 13.434 169.121 13.898 L 169.578 17.486 C 169.606 17.697 169.655 17.936 169.923 18.112 L 168.557 18.112 C 168.903 17.879 168.846 17.556 168.811 17.233 L 168.438 13.926 L 166.701 18.182 L 166.505 18.013 C 166.335 17.866 166.222 17.655 166.132 17.422 L 164.753 13.941 L 164.281 17.289 C 164.239 17.584 164.182 17.915 164.562 18.112 L 163.339 18.112 C 163.521 17.943 163.662 17.71 163.718 17.31 L 164.211 13.919 C 164.253 13.617 164.316 13.384 163.985 13.188 L 165.237 13.188 Z " fill="rgb(10,81,161)"></path><path d=" M 105.149 25.645 C 105.149 25.841 105.149 26.123 105.473 26.348 L 104.108 26.348 C 104.432 26.123 104.432 25.841 104.432 25.645 L 104.432 21.987 L 103.594 21.98 C 103.426 21.98 103.124 22.008 102.864 22.275 L 103.145 21.396 C 103.313 21.424 103.412 21.424 103.594 21.424 L 106.317 21.424 C 106.465 21.424 106.62 21.41 106.747 21.396 L 106.501 22.219 C 106.366 21.98 106.113 21.98 105.937 21.98 L 105.149 21.987 L 105.149 25.645 Z " fill="rgb(10,81,161)"></path><path d=" M 106.835 26.348 C 107.151 26.122 107.158 25.876 107.158 25.645 L 107.158 22.127 C 107.158 21.93 107.158 21.649 106.835 21.424 L 108.579 21.424 C 108.966 21.424 110.331 21.431 110.331 22.725 C 110.331 23.66 109.528 24.132 108.741 24.132 C 108.537 24.132 108.319 24.09 108.144 24.04 C 108.706 24.02 109.523 23.752 109.523 22.866 C 109.523 22.289 109.128 21.945 108.467 21.945 C 108.27 21.945 108.065 21.973 107.876 22.015 L 107.876 25.532 C 107.876 25.757 107.911 26.159 108.312 26.348 L 106.835 26.348 Z " fill="rgb(10,81,161)"></path><path d=" M 111.903 24.005 L 113.428 24.005 L 112.663 22.064 L 111.903 24.005 Z  M 113.155 21.424 L 114.85 25.623 C 114.963 25.898 115.103 26.165 115.448 26.348 L 113.935 26.348 C 114.266 26.2 114.21 25.961 114.146 25.799 L 113.612 24.477 L 111.719 24.477 L 111.276 25.581 C 111.178 25.827 111.114 26.115 111.445 26.348 L 110.116 26.348 C 110.481 26.109 110.622 25.792 110.757 25.454 L 112.163 21.895 C 112.191 21.824 112.29 21.558 112.001 21.424 L 113.155 21.424 Z " fill="rgb(10,81,161)"></path><path d=" M 119.144 23.365 L 119.144 22.127 C 119.144 21.894 119.138 21.648 118.821 21.424 L 120.185 21.424 C 119.869 21.648 119.862 21.894 119.862 22.127 L 119.862 25.644 C 119.862 25.876 119.869 26.122 120.185 26.347 L 118.821 26.347 C 119.138 26.122 119.144 25.876 119.144 25.644 L 119.144 23.927 L 116.437 23.927 L 116.437 25.644 C 116.437 25.876 116.443 26.122 116.759 26.347 L 115.395 26.347 C 115.712 26.122 115.718 25.876 115.718 25.644 L 115.718 22.127 C 115.718 21.894 115.712 21.648 115.395 21.424 L 116.759 21.424 C 116.443 21.648 116.437 21.894 116.437 22.127 L 116.437 23.365 L 119.144 23.365 Z " fill="rgb(10,81,161)"></path><path d=" M 124.78 22.366 C 124.647 22.274 124.126 21.916 123.387 21.916 C 122.467 21.916 121.545 22.528 121.545 23.73 C 121.545 24.758 122.135 25.855 123.557 25.855 C 124.528 25.855 124.999 25.511 125.21 25.335 L 124.731 26.277 C 124.316 26.411 123.965 26.453 123.501 26.453 C 121.389 26.453 120.736 25.011 120.736 23.921 C 120.736 22.57 121.692 21.318 123.472 21.318 C 123.901 21.318 124.155 21.382 124.386 21.43 C 124.528 21.466 124.626 21.487 124.78 21.508 L 124.78 22.366 Z " fill="rgb(10,81,161)"></path><path d=" M 125.796 22.127 C 125.796 21.895 125.79 21.648 125.473 21.424 L 129.982 21.424 C 129.665 21.648 129.658 21.895 129.658 22.127 L 129.658 25.645 C 129.658 25.876 129.665 26.122 129.982 26.348 L 128.617 26.348 C 128.934 26.122 128.941 25.876 128.941 25.645 L 128.941 21.986 L 126.515 21.986 L 126.515 25.645 C 126.515 25.876 126.521 26.122 126.837 26.348 L 125.473 26.348 C 125.79 26.122 125.796 25.876 125.796 25.645 L 125.796 22.127 Z " fill="rgb(10,81,161)"></path><path d=" M 131.342 23.774 C 131.342 24.997 132.109 25.876 133.22 25.876 C 134.128 25.876 135.126 25.294 135.126 23.999 C 135.126 22.774 134.361 21.895 133.248 21.895 C 132.341 21.895 131.342 22.479 131.342 23.774 Z  M 135.936 23.885 C 135.936 25.201 135.007 26.454 133.235 26.454 C 131.392 26.454 130.533 25.125 130.533 23.885 C 130.533 22.57 131.462 21.319 133.235 21.319 C 135.077 21.319 135.936 22.647 135.936 23.885 Z " fill="rgb(10,81,161)"></path><path d=" M 136.485 26.348 C 136.801 26.122 136.809 25.876 136.809 25.645 L 136.809 22.127 C 136.809 21.93 136.809 21.649 136.485 21.424 L 138.229 21.424 C 138.617 21.424 139.981 21.431 139.981 22.725 C 139.981 23.66 139.179 24.132 138.391 24.132 C 138.188 24.132 137.969 24.09 137.794 24.04 C 138.356 24.02 139.173 23.752 139.173 22.866 C 139.173 22.289 138.778 21.945 138.118 21.945 C 137.921 21.945 137.716 21.973 137.526 22.015 L 137.526 25.532 C 137.526 25.757 137.561 26.159 137.963 26.348 L 136.485 26.348 Z " fill="rgb(10,81,161)"></path><path d=" M 142.194 25.645 C 142.194 25.841 142.194 26.123 142.517 26.348 L 141.153 26.348 C 141.475 26.123 141.475 25.841 141.475 25.645 L 141.475 21.987 L 140.639 21.98 C 140.469 21.98 140.168 22.008 139.907 22.275 L 140.188 21.396 C 140.358 21.424 140.456 21.424 140.639 21.424 L 143.361 21.424 C 143.508 21.424 143.664 21.41 143.79 21.396 L 143.544 22.219 C 143.411 21.98 143.157 21.98 142.981 21.98 L 142.194 21.987 L 142.194 25.645 Z " fill="rgb(10,81,161)"></path><path d=" M 144.638 23.774 C 144.638 24.997 145.406 25.876 146.517 25.876 C 147.424 25.876 148.423 25.294 148.423 23.999 C 148.423 22.774 147.657 21.895 146.544 21.895 C 145.638 21.895 144.638 22.479 144.638 23.774 Z  M 149.232 23.885 C 149.232 25.201 148.304 26.454 146.531 26.454 C 144.688 26.454 143.829 25.125 143.829 23.885 C 143.829 22.57 144.758 21.319 146.531 21.319 C 148.374 21.319 149.232 22.647 149.232 23.885 Z " fill="rgb(10,81,161)"></path><path d=" M 151.322 21.424 L 152.743 25.103 L 154.065 21.916 C 154.135 21.754 154.185 21.571 154.214 21.424 L 155.43 21.424 C 155.297 21.508 155.149 21.67 155.206 22.134 L 155.663 25.722 C 155.69 25.933 155.74 26.172 156.007 26.348 L 154.642 26.348 C 154.987 26.115 154.93 25.792 154.895 25.469 L 154.522 22.162 L 152.786 26.418 L 152.589 26.249 C 152.42 26.102 152.307 25.891 152.216 25.658 L 150.837 22.177 L 150.366 25.525 C 150.323 25.82 150.267 26.151 150.647 26.348 L 149.423 26.348 C 149.606 26.179 149.747 25.946 149.803 25.546 L 150.296 22.155 C 150.338 21.853 150.401 21.62 150.07 21.424 L 151.322 21.424 Z " fill="rgb(10,81,161)"></path><path d=" M 0.324 13.891 C 0.324 13.659 0.317 13.412 0 13.188 L 4.51 13.188 C 4.193 13.412 4.186 13.659 4.186 13.891 L 4.186 17.409 C 4.186 17.64 4.193 17.886 4.51 18.112 L 3.145 18.112 C 3.461 17.886 3.469 17.64 3.469 17.409 L 3.469 13.75 L 1.042 13.75 L 1.042 17.409 C 1.042 17.64 1.049 17.886 1.365 18.112 L 0 18.112 C 0.317 17.886 0.324 17.64 0.324 17.409 L 0.324 13.891 Z " fill="rgb(10,81,161)"></path><path d=" M 5.109 18.111 C 5.426 17.885 5.433 17.639 5.433 17.408 L 5.433 13.89 C 5.433 13.693 5.433 13.412 5.109 13.187 L 6.854 13.187 C 7.241 13.187 8.605 13.194 8.605 14.488 C 8.605 15.423 7.803 15.895 7.016 15.895 C 6.812 15.895 6.593 15.853 6.418 15.803 C 6.981 15.783 7.797 15.515 7.797 14.629 C 7.797 14.052 7.402 13.708 6.741 13.708 C 6.544 13.708 6.34 13.736 6.151 13.778 L 6.151 17.295 C 6.151 17.52 6.186 17.922 6.587 18.111 L 5.109 18.111 Z " fill="rgb(10,81,161)"></path><path d=" M 12.59 13.462 C 12.674 13.335 12.731 13.265 12.836 13.188 L 13.835 13.188 C 13.519 13.412 13.511 13.658 13.511 13.891 L 13.511 17.408 C 13.511 17.64 13.519 17.886 13.835 18.111 L 12.47 18.111 C 12.787 17.886 12.794 17.64 12.794 17.408 L 12.794 14.108 L 10.29 17.837 C 10.206 17.964 10.149 18.034 10.044 18.111 L 9.045 18.111 C 9.361 17.886 9.368 17.64 9.368 17.408 L 9.368 13.891 C 9.368 13.658 9.361 13.412 9.045 13.188 L 10.409 13.188 C 10.093 13.412 10.086 13.658 10.086 13.891 L 10.086 17.19 L 12.59 13.462 Z " fill="rgb(10,81,161)"></path><path d=" M 15.477 17.527 C 15.667 17.555 15.948 17.59 16.208 17.59 C 17.285 17.59 17.397 16.929 17.397 16.627 C 17.397 16.218 17.158 15.607 16.06 15.607 C 16.004 15.607 15.864 15.607 15.477 15.635 L 15.477 17.527 Z  M 15.477 15.149 L 15.864 15.157 C 16.602 15.171 16.94 14.777 16.94 14.369 C 16.94 13.996 16.673 13.673 16.033 13.673 C 15.885 13.673 15.639 13.693 15.477 13.714 L 15.477 15.149 Z  M 16.328 13.152 C 17.158 13.137 17.742 13.567 17.742 14.256 C 17.742 14.882 17.264 15.157 16.996 15.256 C 17.7 15.333 18.206 15.839 18.206 16.578 C 18.206 17.204 17.861 18.111 16.145 18.111 L 14.435 18.111 C 14.759 17.885 14.759 17.604 14.759 17.408 L 14.759 13.89 C 14.759 13.693 14.759 13.412 14.435 13.187 L 16.328 13.152 Z " fill="rgb(10,81,161)"></path><path d=" M 19.356 15.537 C 19.356 16.761 20.123 17.64 21.234 17.64 C 22.142 17.64 23.141 17.057 23.141 15.762 C 23.141 14.538 22.374 13.658 21.262 13.658 C 20.355 13.658 19.356 14.242 19.356 15.537 Z  M 23.95 15.649 C 23.95 16.965 23.021 18.217 21.249 18.217 C 19.405 18.217 18.547 16.888 18.547 15.649 C 18.547 14.334 19.476 13.082 21.249 13.082 C 23.091 13.082 23.95 14.411 23.95 15.649 Z " fill="rgb(10,81,161)"></path><path d=" M 28.15 17.408 C 28.15 17.604 28.15 17.886 28.474 18.111 L 27.109 18.111 C 27.433 17.886 27.433 17.604 27.433 17.408 L 27.433 13.75 L 25.998 13.75 L 25.983 14.601 C 25.934 17.738 25.027 18.217 24.358 18.217 C 24.239 18.217 24.148 18.181 24.07 18.153 L 23.986 17.338 C 24.148 17.464 24.26 17.513 24.401 17.513 C 25.196 17.513 25.386 15.487 25.386 14.362 C 25.386 13.701 25.252 13.328 24.872 13.187 L 28.481 13.187 C 28.157 13.42 28.15 13.666 28.15 13.89 L 28.15 17.408 Z " fill="rgb(10,81,161)"></path><path d=" M 33.506 14.081 C 33.696 13.827 33.795 13.673 33.795 13.532 C 33.795 13.363 33.661 13.243 33.541 13.187 L 34.892 13.187 L 33.182 15.403 L 33.991 16.473 C 34.132 16.655 34.273 16.838 34.421 17.021 C 34.786 17.478 35.089 17.815 35.602 18.111 L 34.85 18.146 C 34.294 18.175 34.012 17.745 33.661 17.26 L 32.409 15.558 L 33.506 14.081 Z  M 32.591 13.187 C 32.268 13.412 32.268 13.693 32.268 13.891 L 32.268 17.408 C 32.268 17.604 32.268 17.886 32.591 18.111 L 31.227 18.111 C 31.55 17.886 31.55 17.604 31.55 17.408 L 31.55 13.891 C 31.55 13.693 31.55 13.412 31.227 13.187 L 32.591 13.187 Z  M 30.158 17.26 C 29.806 17.745 29.525 18.175 28.969 18.146 L 28.216 18.111 C 28.73 17.815 29.032 17.478 29.398 17.021 C 29.546 16.838 29.686 16.655 29.827 16.473 L 30.636 15.403 L 28.927 13.187 L 30.277 13.187 C 30.158 13.243 30.024 13.363 30.024 13.532 C 30.024 13.673 30.123 13.827 30.313 14.081 L 31.41 15.558 L 30.158 17.26 Z " fill="rgb(10,81,161)"></path><path d=" M 39.332 14.13 C 39.198 14.038 38.678 13.68 37.939 13.68 C 37.018 13.68 36.096 14.292 36.096 15.494 C 36.096 16.522 36.687 17.619 38.108 17.619 C 39.079 17.619 39.55 17.275 39.761 17.099 L 39.283 18.041 C 38.868 18.175 38.516 18.217 38.052 18.217 C 35.941 18.217 35.288 16.775 35.288 15.685 C 35.288 14.334 36.244 13.082 38.024 13.082 C 38.453 13.082 38.706 13.146 38.938 13.194 C 39.079 13.23 39.177 13.251 39.332 13.272 L 39.332 14.13 Z " fill="rgb(10,81,161)"></path><path d=" M 42.303 14.081 C 42.493 13.827 42.592 13.673 42.592 13.532 C 42.592 13.363 42.458 13.243 42.338 13.187 L 43.689 13.187 L 41.979 15.403 L 42.788 16.473 C 43.428 17.323 43.787 17.76 44.399 18.111 L 43.647 18.146 C 43.091 18.175 42.809 17.745 42.458 17.26 L 41.206 15.558 L 42.303 14.081 Z  M 41.388 13.187 C 41.065 13.412 41.065 13.693 41.065 13.891 L 41.065 17.408 C 41.065 17.604 41.065 17.886 41.388 18.111 L 40.024 18.111 C 40.347 17.886 40.347 17.604 40.347 17.408 L 40.347 13.891 C 40.347 13.693 40.347 13.412 40.024 13.187 L 41.388 13.187 Z " fill="rgb(10,81,161)"></path><path d=" M 44.895 15.537 C 44.895 16.761 45.662 17.64 46.773 17.64 C 47.681 17.64 48.68 17.057 48.68 15.762 C 48.68 14.538 47.913 13.658 46.801 13.658 C 45.894 13.658 44.895 14.242 44.895 15.537 Z  M 49.489 15.649 C 49.489 16.965 48.56 18.217 46.788 18.217 C 44.944 18.217 44.086 16.888 44.086 15.649 C 44.086 14.334 45.015 13.082 46.788 13.082 C 48.63 13.082 49.489 14.411 49.489 15.649 Z " fill="rgb(10,81,161)"></path><path d=" M 52.768 13.188 L 52.768 13.997 C 52.634 13.842 52.444 13.737 52.029 13.744 L 51.08 13.764 L 51.08 15.171 L 52.093 15.171 C 52.184 15.171 52.268 15.165 52.346 15.15 L 52.346 15.917 C 52.212 15.784 52.058 15.734 51.811 15.734 L 51.08 15.734 L 51.08 17.5 C 51.509 17.542 51.853 17.549 51.994 17.549 C 52.768 17.549 53.155 17.394 53.464 17.12 L 53.106 18.112 L 50.039 18.112 C 50.362 17.886 50.362 17.591 50.362 17.409 L 50.362 13.891 C 50.362 13.709 50.362 13.413 50.039 13.188 L 52.768 13.188 Z " fill="rgb(10,81,161)"></path><path d=" M 9.784 21.424 L 11.156 24.364 L 12.098 22.226 C 12.14 22.142 12.197 21.965 12.197 21.769 C 12.197 21.67 12.161 21.508 11.992 21.424 L 13.069 21.424 L 11.303 25.349 C 10.888 26.278 10.297 26.418 9.805 26.418 C 9.51 26.418 9.291 26.376 9.045 26.229 L 9.516 25.7 C 9.615 25.778 9.727 25.827 9.904 25.827 C 10.34 25.827 10.607 25.511 10.726 25.258 L 10.86 24.984 C 10.551 24.765 10.473 24.596 10.375 24.406 L 9.137 21.945 C 8.961 21.593 8.764 21.473 8.644 21.424 L 9.784 21.424 Z " fill="rgb(10,81,161)"></path><path d=" M 13.55 22.127 C 13.55 21.895 13.543 21.648 13.226 21.424 L 17.736 21.424 C 17.419 21.648 17.412 21.895 17.412 22.127 L 17.412 25.645 C 17.412 25.876 17.419 26.122 17.736 26.348 L 16.371 26.348 C 16.687 26.122 16.695 25.876 16.695 25.645 L 16.695 21.986 L 14.268 21.986 L 14.268 25.645 C 14.268 25.876 14.275 26.122 14.591 26.348 L 13.226 26.348 C 13.543 26.122 13.55 25.876 13.55 25.645 L 13.55 22.127 Z " fill="rgb(10,81,161)"></path><path d=" M 18.336 26.348 C 18.653 26.122 18.66 25.876 18.66 25.645 L 18.66 22.127 C 18.66 21.93 18.66 21.649 18.336 21.424 L 20.08 21.424 C 20.468 21.424 21.831 21.431 21.831 22.725 C 21.831 23.66 21.029 24.132 20.243 24.132 C 20.038 24.132 19.819 24.09 19.645 24.04 C 20.208 24.02 21.024 23.752 21.024 22.866 C 21.024 22.289 20.628 21.945 19.968 21.945 C 19.771 21.945 19.566 21.973 19.378 22.015 L 19.378 25.532 C 19.378 25.757 19.413 26.159 19.813 26.348 L 18.336 26.348 Z " fill="rgb(10,81,161)"></path><path d=" M 23.404 24.005 L 24.93 24.005 L 24.164 22.064 L 23.404 24.005 Z  M 24.656 21.424 L 26.351 25.623 C 26.464 25.898 26.605 26.165 26.949 26.348 L 25.437 26.348 C 25.767 26.2 25.711 25.961 25.648 25.799 L 25.113 24.477 L 23.221 24.477 L 22.778 25.581 C 22.679 25.827 22.616 26.115 22.946 26.348 L 21.617 26.348 C 21.983 26.109 22.124 25.792 22.258 25.454 L 23.664 21.895 C 23.693 21.824 23.791 21.558 23.503 21.424 L 24.656 21.424 Z " fill="rgb(10,81,161)"></path><path d=" M 27.937 25.764 C 28.127 25.792 28.408 25.827 28.668 25.827 C 29.745 25.827 29.857 25.166 29.857 24.864 C 29.857 24.455 29.618 23.844 28.52 23.844 C 28.464 23.844 28.324 23.844 27.937 23.872 L 27.937 25.764 Z  M 27.937 23.386 L 28.324 23.394 C 29.062 23.408 29.4 23.014 29.4 22.606 C 29.4 22.233 29.133 21.91 28.493 21.91 C 28.345 21.91 28.099 21.93 27.937 21.951 L 27.937 23.386 Z  M 28.788 21.389 C 29.618 21.374 30.202 21.804 30.202 22.493 C 30.202 23.119 29.724 23.394 29.456 23.493 C 30.16 23.57 30.666 24.076 30.666 24.815 C 30.666 25.441 30.321 26.348 28.605 26.348 L 26.895 26.348 C 27.219 26.122 27.219 25.841 27.219 25.645 L 27.219 22.127 C 27.219 21.93 27.219 21.649 26.895 21.424 L 28.788 21.389 Z " fill="rgb(10,81,161)"></path><path d=" M 34.707 25.645 C 34.707 25.841 34.707 26.123 35.031 26.348 L 33.666 26.348 C 33.99 26.123 33.99 25.841 33.99 25.645 L 33.99 21.987 L 32.555 21.987 L 32.54 22.838 C 32.491 25.975 31.584 26.454 30.915 26.454 C 30.796 26.454 30.705 26.418 30.627 26.39 L 30.543 25.575 C 30.705 25.701 30.817 25.75 30.958 25.75 C 31.753 25.75 31.943 23.724 31.943 22.599 C 31.943 21.938 31.809 21.565 31.429 21.424 L 35.038 21.424 C 34.714 21.657 34.707 21.903 34.707 22.127 L 34.707 25.645 Z " fill="rgb(10,81,161)"></path><path d=" M 38.368 21.424 L 38.368 22.233 C 38.234 22.078 38.044 21.973 37.629 21.98 L 36.68 22 L 36.68 23.407 L 37.693 23.407 C 37.784 23.407 37.868 23.401 37.946 23.386 L 37.946 24.153 C 37.812 24.02 37.658 23.97 37.411 23.97 L 36.68 23.97 L 36.68 25.736 C 37.109 25.778 37.453 25.785 37.594 25.785 C 38.368 25.785 38.755 25.63 39.064 25.356 L 38.706 26.348 L 35.639 26.348 C 35.962 26.122 35.962 25.827 35.962 25.645 L 35.962 22.127 C 35.962 21.945 35.962 21.649 35.639 21.424 L 38.368 21.424 Z " fill="rgb(10,81,161)"></path><path d=" M 43.007 23.365 L 43.007 22.127 C 43.007 21.894 43 21.648 42.683 21.424 L 44.048 21.424 C 43.732 21.648 43.724 21.894 43.724 22.127 L 43.724 25.644 C 43.724 25.876 43.732 26.122 44.048 26.347 L 42.683 26.347 C 43 26.122 43.007 25.876 43.007 25.644 L 43.007 23.927 L 40.299 23.927 L 40.299 25.644 C 40.299 25.876 40.306 26.122 40.622 26.347 L 39.257 26.347 C 39.574 26.122 39.581 25.876 39.581 25.644 L 39.581 22.127 C 39.581 21.894 39.574 21.648 39.257 21.424 L 40.622 21.424 C 40.306 21.648 40.299 21.894 40.299 22.127 L 40.299 23.365 L 43.007 23.365 Z " fill="rgb(10,81,161)"></path><path d=" M 48.193 21.698 C 48.277 21.571 48.334 21.501 48.439 21.424 L 49.438 21.424 C 49.122 21.648 49.114 21.894 49.114 22.127 L 49.114 25.644 C 49.114 25.876 49.122 26.122 49.438 26.347 L 48.073 26.347 C 48.39 26.122 48.397 25.876 48.397 25.644 L 48.397 22.344 L 45.893 26.073 C 45.808 26.2 45.752 26.27 45.647 26.347 L 44.648 26.347 C 44.964 26.122 44.971 25.876 44.971 25.644 L 44.971 22.127 C 44.971 21.894 44.964 21.648 44.648 21.424 L 46.012 21.424 C 45.696 21.648 45.689 21.894 45.689 22.127 L 45.689 25.426 L 48.193 21.698 Z " fill="rgb(10,81,161)"></path><path d=" M 52.768 21.424 L 52.768 22.233 C 52.634 22.078 52.444 21.973 52.029 21.98 L 51.08 22 L 51.08 23.407 L 52.093 23.407 C 52.184 23.407 52.268 23.401 52.346 23.386 L 52.346 24.153 C 52.212 24.02 52.058 23.97 51.811 23.97 L 51.08 23.97 L 51.08 25.736 C 51.509 25.778 51.853 25.785 51.994 25.785 C 52.768 25.785 53.155 25.63 53.464 25.356 L 53.106 26.348 L 50.039 26.348 C 50.362 26.122 50.362 25.827 50.362 25.645 L 50.362 22.127 C 50.362 21.945 50.362 21.649 50.039 21.424 L 52.768 21.424 Z " fill="rgb(10,81,161)"></path></g></svg>