<?xml version="1.0" encoding="UTF-8" standalone="no"?><svg xmlns="http://www.w3.org/2000/svg" viewBox="0 0 489.93 207.98"><defs><style>.cls-1{fill:#e8d4a7;}.cls-2{fill:#5e4d46;}.cls-3{fill:#c0ac8b;}.cls-4{fill:#8e7463;}</style></defs><g id="Слой_2" data-name="Слой 2"><g id="Layer_1" data-name="Layer 1"><path class="cls-1" d="M166.86,43.93C133,29.74,92.48,49.32,76.42,87.66s-1.61,80.93,32.27,95.12,74.37-5.39,90.43-43.73S200.73,58.12,166.86,43.93Zm25.86,92.44c-14.74,35.19-51.3,53.42-81.64,40.71s-43-51.55-28.25-86.74,51.3-53.42,81.64-40.71S207.46,101.18,192.72,136.37ZM78,97l0,0c-10.25,33.52,3.4,68.63,32.69,80.89,27.08,11.35,58.71-.55,76.52-26.78l.09,0c-18.08,27.18-50.09,39.77-77.3,28.37C80.71,167.21,67.32,131.35,78,97Zm31,85c-28.67-12-42.66-45.69-34.91-79.37-7.26,32.83,7,65.79,35.58,77.77,28.24,11.83,61.24-.69,79.69-28.17h0C170.72,180.59,137.37,193.8,109.05,181.93Zm88.49-52.2,0,0c10.24-33.52-3.41-68.61-32.69-80.87-27.08-11.35-58.69.54-76.51,26.75l-.09,0c18.09-27.17,50.09-39.74,77.29-28.35C194.83,59.49,208.22,95.34,197.54,129.73ZM165.83,46.38c-28.24-11.82-61.22.68-79.67,28.15h0c18.7-28.42,52-41.61,80.35-29.75,28.67,12,42.66,45.69,34.91,79.37C208.67,91.32,194.42,58.36,165.83,46.38Z"/><path class="cls-2" d="M261.36,75.58h-.92V67.91h-9.09v7.67h-.93c-7.9,0-14.62,2.89-19.44,8.37a29.17,29.17,0,0,0-6.88,19.39c0,13.75,9,27.67,26.32,27.67h.93v8h9.09v-8h.92c17.28,0,26.32-13.92,26.32-27.67A29.17,29.17,0,0,0,280.8,84C276,78.47,269.26,75.58,261.36,75.58Zm-10.94,2h.93V129h-.93c-10.14,0-17.23-10.56-17.23-25.68S240.28,77.57,250.42,77.57Zm10,0h.92c10.14,0,17.23,10.6,17.23,25.77S271.5,129,261.36,129h-.92Z"/><polygon class="cls-2" points="300.55 119.65 300.55 70.78 291.45 70.78 291.45 138.97 293.24 138.97 318.7 90.1 318.7 138.97 327.79 138.97 327.79 70.78 326 70.78 300.55 119.65"/><polygon class="cls-2" points="361.68 92.75 343.52 92.75 343.52 70.78 334.43 70.78 334.43 138.97 343.52 138.97 343.52 94.75 361.68 94.75 361.68 138.97 370.77 138.97 370.77 70.78 361.68 70.78 361.68 92.75"/><polygon class="cls-2" points="386.51 119.65 386.51 70.78 377.42 70.78 377.42 138.97 379.2 138.97 404.66 90.1 404.66 138.97 413.75 138.97 413.75 70.78 411.96 70.78 386.51 119.65"/><path class="cls-2" d="M419.44,104.88c0,19.75,14.82,34.09,35.24,34.09h.52v-2h-.52c-14.93,0-25.77-13.5-25.77-32.1,0-18.06,10-31.12,24.3-32V92.25h2V70.78h-.52C434.26,70.78,419.44,85.12,419.44,104.88Z"/><polygon class="cls-2" points="457.05 70.78 457.05 72.78 468.94 72.78 468.94 138.97 478.03 138.97 478.03 72.78 489.93 72.78 489.93 70.78 457.05 70.78"/><path class="cls-2" d="M166.94,21.47c-1.39-3.5-13.56-6.43-15.66,6.14-3.22-1-9.51-.69-11.19,14.28C138.73,54,137.22,63,128.51,64.62c12.2,3.45,16-1,19.63-1.32,5.84-.53,17.78,9.81,7.17,49.87,12.46-19.9,7.95-39,8.7-56.45.57-13.48,2-21.19-3.08-23.08C163.73,30.28,160.51,20.49,166.94,21.47ZM150.42,34.69c-.7,1.31-1.84,2.06-2.56,1.68s-.73-1.75,0-3.06a5.86,5.86,0,0,1,.45-.69c-.21.64-.12,1.24.28,1.45s1.17-.17,1.58-.93a1.76,1.76,0,0,0,.15-1.55l.1,0C151.1,32,151.11,33.38,150.42,34.69Z"/><path class="cls-1" d="M78.24,182.92c56.24-14.71,97.54-52.59,87.66-116.83C175.91,148.78,92,190.94,5.05,177.42,32.58,185.27,57.1,186.49,78.24,182.92Z"/><path class="cls-3" d="M79.44,191.09c54.65-15.93,98.89-53.68,86.46-125C179.22,152.7,99.53,191.41,15.6,190,39.41,194.86,60.76,194.8,79.44,191.09Z"/><path class="cls-2" d="M165.9,66.09c17,83.07-40.85,134.3-129.13,141.86C162.67,209.56,179.88,127.42,165.9,66.09Z"/><path class="cls-4" d="M165.9,66.09a164.13,164.13,0,0,1,3.57,23.14A95.53,95.53,0,0,0,165.9,66.09Z"/><path class="cls-4" d="M100.85,192.46c50-22.12,77.45-65.77,65.05-126.37C182.52,161.45,97.83,196.8,22.4,200.22,54.16,203.76,80.09,200.37,100.85,192.46Z"/><path class="cls-1" d="M52,69.57c27.09,9.37,59.48,9.32,91.34.94l2-.53c1.54-.42,3.07-.85,4.6-1.31C85.64,74,33.46,56.43,9.64,0,9.49,32.7,24.43,57.56,52,69.57Z"/><path class="cls-3" d="M57.74,88.81c33.19,4.9,66.6-4.47,92.14-20.14C90.46,86.49,27.79,75.43,0,28.36,6.62,62.49,29.07,82.52,57.74,88.81Z"/><path class="cls-2" d="M131.56,129.52c9.37-15.52,8.24-25.45,8.09-38.1-8.22,11.93-45.22,46.11-118.95,6.13C95.85,114.85,129.88,91,149.88,68.67,159.08,109.17,131.56,129.52,131.56,129.52Z"/><path class="cls-4" d="M149.88,68.67c-40.14,24.62-99.69,33.7-147.33-3.73,16.19,25,39.35,36.38,62.91,38.51C110.43,104.19,134.37,86,149.88,68.67Z"/><path class="cls-2" d="M254.69,164.75v-1.19c-3.37,0-5.42-2.09-5.42-4.85s2.06-4.75,5.42-4.75v-1h2.4v1c3.35,0,5.42,2,5.42,4.76s-2,4.84-5.42,4.84v1.19Zm0-8.65a2.67,2.67,0,1,0,0,5.32Zm2.4,5.32a2.67,2.67,0,1,0,0-5.32Z"/><path class="cls-2" d="M271.8,158.85a5.81,5.81,0,1,1,5.79,5.65A5.65,5.65,0,0,1,271.8,158.85Zm9.1,0a3.32,3.32,0,0,0-3.31-3.44,3.28,3.28,0,0,0-3.28,3.44,3.32,3.32,0,0,0,3.31,3.43A3.27,3.27,0,0,0,280.9,158.85Z"/><path class="cls-2" d="M295.44,155.6h-3.33v-2.22h9.06v2.22h-3.33v8.71h-2.4Z"/><path class="cls-2" d="M309.86,158.85a5.81,5.81,0,1,1,5.8,5.65A5.66,5.66,0,0,1,309.86,158.85Zm9.11,0a3.32,3.32,0,0,0-3.31-3.44,3.28,3.28,0,0,0-3.28,3.44,3.32,3.32,0,0,0,3.31,3.43A3.28,3.28,0,0,0,319,158.85Z"/><path class="cls-2" d="M331.42,153.38h2.41v4.78l4.43-4.78h2.91L336.72,158l4.65,6.29h-2.89l-3.39-4.65L333.83,161v3.34h-2.41Z"/><path class="cls-2" d="M350.63,153.38h8.24v2.14H353v2.22h5.16v2.14H353v2.29H359v2.14h-8.32Z"/><path class="cls-2" d="M368.89,153.38h4.47c2.61,0,4.18,1.55,4.18,3.81,0,2.53-2,3.84-4.42,3.84H371.3v3.28h-2.41Zm4.31,5.51a1.7,1.7,0,0,0,1.91-1.68c0-1.08-.75-1.66-1.95-1.66H371.3v3.34Z"/><path class="cls-2" d="M389.78,153.3H392l4.68,11h-2.51l-1-2.45h-4.62l-1,2.45H385.1Zm2.53,6.44-1.45-3.55-1.45,3.55Z"/><path class="cls-2" d="M406.17,153.38h2.6l2.87,4.62,2.87-4.62h2.6v10.93h-2.4v-7.14l-3.07,4.67h-.06l-3.05-4.62v7.09h-2.36Z"/><path class="cls-2" d="M437,164.31h-2.38v-7.17l-4.77,7.17h-2.27V153.38h2.38v7.17l4.8-7.17H437Z"/><path class="cls-2" d="M447.38,153.38h2.4v4.78l4.43-4.78h2.91L452.67,158l4.65,6.29h-2.89L451,159.66,449.78,161v3.34h-2.4Z"/><path class="cls-2" d="M470.33,153.3h2.21l4.69,11h-2.52l-1-2.45h-4.62l-1,2.45h-2.45Zm2.53,6.44-1.46-3.55L470,159.74Z"/></g></g></svg>