<?xml version="1.0" encoding="UTF-8" standalone="no"?><svg xmlns="http://www.w3.org/2000/svg" viewBox="0 0 297.7 108.45"><defs><style>.cls-1{fill:#5e4d46;}</style></defs><g id="Слой_2" data-name="Слой 2"><g id="Layer_1" data-name="Layer 1"><path class="cls-1" d="M41.73,8.6h-1V0H30.51V8.6h-1C20.63,8.6,13.1,11.84,7.71,18A32.71,32.71,0,0,0,0,39.69c0,15.39,10.13,31,29.48,31h1v8.91H40.69V70.67h1c19.35,0,29.47-15.59,29.47-31A32.7,32.7,0,0,0,63.5,18C58.11,11.84,50.58,8.6,41.73,8.6ZM29.48,10.83h1V68.44h-1c-11.36,0-19.3-11.83-19.3-28.75S18.12,10.83,29.48,10.83Zm11.21,0h1C53.09,10.83,61,22.69,61,39.69S53.09,68.44,41.73,68.44h-1Z"/><polygon class="cls-1" points="85.61 57.95 85.61 3.22 75.43 3.22 75.43 79.58 77.43 79.58 105.94 24.86 105.94 79.58 116.12 79.58 116.12 3.22 114.12 3.22 85.61 57.95"/><polygon class="cls-1" points="154.07 27.83 133.74 27.83 133.74 3.22 123.56 3.22 123.56 79.58 133.74 79.58 133.74 30.06 154.07 30.06 154.07 79.58 164.25 79.58 164.25 3.22 154.07 3.22 154.07 27.83"/><polygon class="cls-1" points="181.88 57.95 181.88 3.22 171.7 3.22 171.7 79.58 173.7 79.58 202.21 24.86 202.21 79.58 212.39 79.58 212.39 3.22 210.38 3.22 181.88 57.95"/><path class="cls-1" d="M218.75,41.4c0,22.13,16.6,38.18,39.47,38.18h.58V77.35h-.58c-16.72,0-28.85-15.12-28.85-35.95,0-20.21,11.15-34.84,27.2-35.81V27.26h2.23v-24h-.58C235.35,3.22,218.75,19.28,218.75,41.4Z"/><polygon class="cls-1" points="260.87 3.22 260.87 5.46 274.19 5.46 274.19 79.58 284.37 79.58 284.37 5.46 297.7 5.46 297.7 3.22 260.87 3.22"/><path class="cls-1" d="M34.26,108.45v-1.33c-3.78,0-6.07-2.34-6.07-5.43s2.31-5.32,6.07-5.32V95.25H37v1.12c3.74,0,6.07,2.25,6.07,5.33s-2.29,5.42-6.07,5.42v1.33Zm0-9.69c-2,0-3.31,1.18-3.31,3s1.33,3,3.31,3Zm2.69,6c2,0,3.29-1.16,3.29-3s-1.31-3-3.29-3Z"/><path class="cls-1" d="M53.42,101.84a6.51,6.51,0,1,1,6.49,6.33A6.33,6.33,0,0,1,53.42,101.84Zm10.19,0A3.71,3.71,0,0,0,59.91,98a3.67,3.67,0,0,0-3.68,3.84,3.72,3.72,0,0,0,3.71,3.85A3.67,3.67,0,0,0,63.61,101.84Z"/><path class="cls-1" d="M79.89,98.21H76.16V95.72H86.31v2.49H82.58V108H79.89Z"/><path class="cls-1" d="M96,101.84a6.51,6.51,0,1,1,6.49,6.33A6.33,6.33,0,0,1,96,101.84Zm10.2,0A3.71,3.71,0,0,0,102.53,98a3.66,3.66,0,0,0-3.67,3.84,3.72,3.72,0,0,0,3.71,3.85A3.68,3.68,0,0,0,106.24,101.84Z"/><path class="cls-1" d="M120.19,95.72h2.69v5.35l5-5.35h3.25l-5,5.2,5.21,7h-3.24l-3.79-5.21-1.42,1.47V108h-2.69Z"/><path class="cls-1" d="M141.69,95.72h9.24v2.4h-6.56v2.48h5.77V103h-5.77v2.57H151V108h-9.32Z"/><path class="cls-1" d="M162.15,95.72h5c2.92,0,4.69,1.73,4.69,4.27,0,2.83-2.21,4.3-5,4.3h-2V108h-2.69ZM167,101.9a1.9,1.9,0,0,0,2.13-1.89c0-1.21-.84-1.86-2.19-1.86h-2.08v3.75Z"/><path class="cls-1" d="M185.54,95.63H188L193.27,108h-2.81l-1.12-2.74h-5.18L183,108H180.3Zm2.84,7.21-1.63-4-1.63,4Z"/><path class="cls-1" d="M203.9,95.72h2.9L210,100.9l3.22-5.18h2.9V108h-2.68v-8L210,105.2H210L206.54,100V108H203.9Z"/><path class="cls-1" d="M238.36,108H235.7v-8l-5.35,8h-2.53V95.72h2.66v8l5.38-8h2.5Z"/><path class="cls-1" d="M250,95.72h2.69v5.35l5-5.35H261l-5,5.2,5.21,7H258l-3.8-5.21-1.42,1.47V108H250Z"/><path class="cls-1" d="M275.74,95.63h2.49L283.47,108h-2.81l-1.12-2.74h-5.18L273.24,108H270.5Zm2.84,7.21-1.63-4-1.63,4Z"/></g></g></svg>